<svg xmlns="http://www.w3.org/2000/svg" width="558.427" height="167.483" viewBox="0 0 558.427 167.483">
  <path id="spotify" d="M84,.277A83.741,83.741,0,1,0,167.74,84.019,83.743,83.743,0,0,0,84,.277v0Zm38.4,120.78a5.217,5.217,0,0,1-7.18,1.73c-19.662-12.01-44.414-14.73-73.564-8.07a5.221,5.221,0,0,1-2.323-10.18c31.9-7.288,59.263-4.15,81.337,9.34A5.219,5.219,0,0,1,122.4,121.057Zm10.25-22.8a6.529,6.529,0,0,1-8.98,2.152c-22.51-13.836-56.823-17.843-83.448-9.761a6.528,6.528,0,1,1-3.794-12.493C66.841,68.925,104.65,73.395,130.5,89.28a6.527,6.527,0,0,1,2.15,8.976Zm.88-23.744c-26.99-16.031-71.52-17.5-97.289-9.684a7.832,7.832,0,1,1-4.547-14.99c29.581-8.98,78.756-7.245,109.83,11.2a7.832,7.832,0,1,1-7.99,13.472Zm94.56,3.072c-14.46-3.448-17.03-5.868-17.03-10.953,0-4.8,4.52-8.037,11.25-8.037,6.52,0,12.98,2.455,19.76,7.509a.955.955,0,0,0,1.34-.212l7.06-9.952a.95.95,0,0,0-.18-1.288,42.72,42.72,0,0,0-27.77-9.62C206.91,45.03,196,54.4,196,67.8c0,14.375,9.41,19.465,25.67,23.394,13.83,3.187,16.17,5.857,16.17,10.629,0,5.29-4.72,8.58-12.32,8.58-8.44,0-15.33-2.85-23.03-9.51a.98.98,0,0,0-.69-.23.937.937,0,0,0-.65.33l-7.92,9.42a.953.953,0,0,0,.09,1.32,47.19,47.19,0,0,0,31.88,12.22c16.82,0,27.69-9.19,27.69-23.42.03-12.007-7.16-18.657-24.77-22.941l-.03-.013Zm62.86-14.26c-7.29,0-13.27,2.872-18.21,8.757V65.456a.945.945,0,0,0-.94-.949H258.85a.945.945,0,0,0-.94.949v73.6a.947.947,0,0,0,.94.95H271.8a.947.947,0,0,0,.94-.95v-23.23a23.294,23.294,0,0,0,18.21,8.24c13.55,0,27.27-10.43,27.27-30.369.02-19.943-13.7-30.376-27.26-30.376h-.01ZM303.16,93.7c0,10.149-6.25,17.239-15.21,17.239-8.85,0-15.53-7.41-15.53-17.239S279.1,76.46,287.95,76.46c8.81,0,15.21,7.247,15.21,17.237Zm50.21-30.375c-17.45,0-31.12,13.436-31.12,30.592,0,16.972,13.58,30.262,30.91,30.262,17.51,0,31.22-13.39,31.22-30.479,0-17.031-13.62-30.373-31.01-30.373Zm0,47.714c-9.28,0-16.28-7.46-16.28-17.344,0-9.929,6.76-17.134,16.07-17.134,9.34,0,16.38,7.457,16.38,17.351,0,9.927-6.8,17.127-16.17,17.127Zm68.27-46.53H407.39V49.941a.944.944,0,0,0-.94-.948H393.5a.953.953,0,0,0-.95.948V64.507h-6.22a.945.945,0,0,0-.94.949V76.583a.945.945,0,0,0,.94.949h6.22v28.795c0,11.63,5.79,17.53,17.22,17.53a23.586,23.586,0,0,0,12.12-3.02.926.926,0,0,0,.48-.82v-10.6a.944.944,0,0,0-.45-.8.918.918,0,0,0-.92-.04,16.346,16.346,0,0,1-7.6,1.83c-4.15,0-6.01-1.89-6.01-6.11V77.537h14.25a.945.945,0,0,0,.94-.949V65.462a.918.918,0,0,0-.93-.949l-.01-.006Zm49.64.057V62.775c0-5.263,2.02-7.61,6.54-7.61a21.878,21.878,0,0,1,7.3,1.346.944.944,0,0,0,1.24-.9V44.7a.937.937,0,0,0-.67-.909,35.469,35.469,0,0,0-10.76-1.546c-11.95,0-18.28,6.734-18.28,19.467v2.74h-6.22a.953.953,0,0,0-.95.948V76.583a.954.954,0,0,0,.95.949h6.22v44.4a.95.95,0,0,0,.95.95h12.94a.943.943,0,0,0,.95-.95v-44.4h12.09l18.52,44.4c-2.1,4.66-4.17,5.59-6.99,5.59a14.863,14.863,0,0,1-7.14-2.03,1.03,1.03,0,0,0-.75-.07.942.942,0,0,0-.56.51l-4.39,9.63a.945.945,0,0,0,.41,1.23,27.247,27.247,0,0,0,13.82,3.54c9.56,0,14.85-4.46,19.5-16.44L538.46,65.86a.947.947,0,0,0-.87-1.293H524.11a.948.948,0,0,0-.9.636L509.4,104.637l-15.12-39.46a.944.944,0,0,0-.88-.61H471.28v0Zm-28.78-.057H429.55a.953.953,0,0,0-.95.949v56.481a.95.95,0,0,0,.95.95H442.5a.95.95,0,0,0,.95-.95V65.46a.947.947,0,0,0-.95-.949v0Zm-6.4-25.719a9.285,9.285,0,1,0,9.28,9.281A9.284,9.284,0,0,0,436.1,38.788Zm113.42,43.88a9.136,9.136,0,1,1,9.16-9.164,9.077,9.077,0,0,1-9.16,9.164Zm.05-17.365a8.227,8.227,0,1,0,8.15,8.2,8.147,8.147,0,0,0-8.15-8.2Zm2.02,9.138,2.58,3.608h-2.18l-2.32-3.31h-1.99v3.31h-1.82V68.485h4.26c2.23,0,3.69,1.137,3.69,3.051a2.839,2.839,0,0,1-2.21,2.9Zm-1.54-4.315h-2.37v3.025h2.37c1.18,0,1.89-.579,1.89-1.514C551.94,70.653,551.23,70.126,550.05,70.126Z" transform="translate(-0.253 -0.277)"/>
</svg>
