<svg xmlns="http://www.w3.org/2000/svg" xmlns:xlink="http://www.w3.org/1999/xlink" width="67.4" height="76.044" viewBox="0 0 67.4 76.044"><defs><radialGradient id="a" cx="3.073" cy="1.428" r="7.767" gradientTransform="matrix(0.911, 0.413, 0.074, -0.162, 0.008, 0.375)" gradientUnits="objectBoundingBox"><stop offset="0" stop-color="#d3ae5b"/><stop offset="1" stop-color="#efdea3"/></radialGradient><linearGradient id="t" x1="9.86" y1="4.194" x2="-9.569" y2="-3.532" gradientUnits="objectBoundingBox"><stop offset="0.006" stop-color="#f9c726"/><stop offset="0.253" stop-color="#fff9ca"/><stop offset="0.305" stop-color="#f8edb9"/><stop offset="0.409" stop-color="#e6cf8c"/><stop offset="0.553" stop-color="#ca9f44"/><stop offset="0.595" stop-color="#c1902e"/><stop offset="0.871" stop-color="#ecd587"/><stop offset="1" stop-color="#fff9ca"/></linearGradient><linearGradient id="u" x1="7.551" y1="4.979" x2="-6.647" y2="-4.102" xlink:href="#t"/><linearGradient id="v" x1="5.252" y1="5.494" x2="-4.337" y2="-4.461" xlink:href="#t"/><linearGradient id="w" x1="4.445" y1="2.411" x2="-9.445" y2="-4.4" xlink:href="#t"/><linearGradient id="x" x1="4.497" y1="7.369" x2="-4.618" y2="-8.317" xlink:href="#t"/><linearGradient id="y" x1="4.129" y1="3.43" x2="-5.984" y2="-4.786" xlink:href="#t"/><linearGradient id="z" x1="4.254" y1="4.723" x2="-5.092" y2="-5.84" xlink:href="#t"/><linearGradient id="aa" x1="5.031" y1="7.279" x2="-4.344" y2="-6.616" xlink:href="#t"/><linearGradient id="ab" x1="3.127" y1="2.628" x2="-7.127" y2="-5.589" xlink:href="#t"/><linearGradient id="ac" x1="2.494" y1="2.766" x2="-6.852" y2="-7.798" xlink:href="#t"/><linearGradient id="ad" x1="2.134" y1="3.248" x2="-7.212" y2="-12.438" xlink:href="#t"/><linearGradient id="ae" x1="6.279" y1="3.98" x2="-5.44" y2="-3.101" xlink:href="#t"/><linearGradient id="af" x1="7.654" y1="3.593" x2="-7.413" y2="-2.959" xlink:href="#t"/><linearGradient id="ag" x1="5.102" y1="2.78" x2="-8.828" y2="-4.03" xlink:href="#t"/><linearGradient id="ah" x1="10.79" y1="3.368" x2="-12.282" y2="-3.102" xlink:href="#t"/><linearGradient id="ai" x1="7.942" y1="3.001" x2="-11.675" y2="-3.551" xlink:href="#t"/><linearGradient id="aj" x1="1.651" y1="1.605" x2="-8.007" y2="-8.133" gradientUnits="objectBoundingBox"><stop offset="0.006" stop-color="#f9c726"/><stop offset="0.253" stop-color="#fff9ca"/><stop offset="0.305" stop-color="#f8edb9"/><stop offset="0.409" stop-color="#e6cf8c"/><stop offset="0.553" stop-color="#ca9f44"/><stop offset="0.595" stop-color="#c1902e"/><stop offset="0.685" stop-color="#cfa64a"/><stop offset="0.871" stop-color="#ecd587"/><stop offset="1" stop-color="#fff9ca"/></linearGradient><linearGradient id="ak" x1="1.749" y1="2.24" x2="-7.597" y2="-11.292" xlink:href="#t"/><linearGradient id="al" x1="5.034" y1="2.039" x2="-14.257" y2="-4.513" xlink:href="#t"/><linearGradient id="am" x1="1.925" y1="1.389" x2="-9.794" y2="-5.702" xlink:href="#t"/><linearGradient id="an" x1="4.267" y1="1.627" x2="-18.106" y2="-4.926" xlink:href="#t"/><linearGradient id="ao" x1="2.617" y1="1.435" x2="-12.45" y2="-5.035" xlink:href="#t"/><linearGradient id="ap" x1="3.172" y1="1.554" x2="-16.783" y2="-6.172" xlink:href="#t"/><linearGradient id="aq" x1="4.792" y1="11.353" x2="-5.185" y2="-13.948" xlink:href="#t"/><linearGradient id="ar" x1="2.201" y1="1.599" x2="-11.997" y2="-7.482" xlink:href="#t"/><linearGradient id="as" x1="5.781" y1="8.273" x2="-4.92" y2="-7.413" xlink:href="#t"/><linearGradient id="at" x1="4.741" y1="5.937" x2="-6.117" y2="-8.053" xlink:href="#t"/><linearGradient id="au" x1="16.919" y1="3.709" x2="-19.169" y2="-3.381" xlink:href="#t"/><linearGradient id="av" x1="1.802" y1="2.36" x2="-8.899" y2="-13.326" xlink:href="#t"/><linearGradient id="aw" x1="6.51" y1="2.478" x2="-15.863" y2="-4.917" xlink:href="#t"/><linearGradient id="ax" x1="6.267" y1="1.641" x2="-29.82" y2="-5.354" xlink:href="#t"/><linearGradient id="ay" x1="8.247" y1="3.097" x2="-14.126" y2="-4.405" xlink:href="#t"/><linearGradient id="az" x1="5.197" y1="17.086" x2="-4.647" y2="-17.423" xlink:href="#t"/><linearGradient id="ba" x1="21.195" y1="3.209" x2="-31.541" y2="-3.692" xlink:href="#t"/><linearGradient id="bb" x1="4.915" y1="3.87" x2="-7.815" y2="-5.897" xlink:href="#t"/><linearGradient id="bc" x1="2.952" y1="3.683" x2="-7.906" y2="-10.307" xlink:href="#t"/><linearGradient id="bd" x1="11.478" y1="2.034" x2="-37.743" y2="-4.868" xlink:href="#t"/><linearGradient id="be" x1="2.358" y1="5.236" x2="-7.619" y2="-20.065" xlink:href="#t"/><linearGradient id="bf" x1="1.86" y1="5.094" x2="-7.984" y2="-29.415" xlink:href="#t"/><linearGradient id="bg" x1="3.987" y1="3.183" x2="-8.966" y2="-6.771" xlink:href="#t"/><linearGradient id="bh" x1="5.533" y1="4.726" x2="-4.721" y2="-3.901" xlink:href="#t"/><linearGradient id="bi" x1="10.536" y1="7.528" x2="-17.861" y2="-12.381" xlink:href="#t"/><linearGradient id="bj" x1="1.75" y1="1.203" x2="-2.241" y2="-1.535" xlink:href="#t"/><linearGradient id="bk" x1="77.424" y1="3.375" x2="-107.152" y2="-3.526" xlink:href="#t"/><linearGradient id="bl" x1="5.038" y1="3.112" x2="-9.16" y2="-5.104" xlink:href="#t"/><linearGradient id="bm" x1="4.946" y1="3.016" x2="-10.122" y2="-5.47" xlink:href="#t"/><linearGradient id="bn" x1="37.354" y1="1.823" x2="-147.223" y2="-4.813" xlink:href="#t"/><linearGradient id="bo" x1="1.993" y1="20.176" x2="-7.851" y2="-109.231" xlink:href="#t"/><linearGradient id="bp" x1="1.896" y1="1.714" x2="-10.012" y2="-8.435" xlink:href="#t"/><linearGradient id="bq" x1="4.939" y1="48.424" x2="-4.649" y2="-55.102" xlink:href="#t"/></defs><path d="M0,48.1H1v4.3H5.7v.7H0Z" fill="url(#a)"/><path d="M6.4,48.1h1v5h-1v-5Z" fill="url(#a)"/><path d="M8.8,48.1h5.7v.7H9.8v1.9h4.7v.7H9.8v1.7h-1Z" fill="url(#a)"/><path d="M15.4,48.1h5.7v.6H16.4v1.5h4.7v.6H16.4v1.6h4.7V53H15.4V48.1Z" fill="url(#a)"/><path d="M25.7,48.1h1v5h-1Z" fill="url(#a)"/><path d="M27.9,48.1h1.3l4.2,4.1h.1V48.1h1v5H33.2L29,49h-.1v4.1h-1Z" fill="url(#a)"/><path d="M41.5,48.8h-3v-.7h6.9v.7h-3v4.3h-1V48.8Z" fill="url(#a)"/><path d="M45.9,50.7V48.1h1v2.7c0,1,1,1.8,2.4,1.8s2.4-.8,2.4-1.9V48.1h1v2.7c0,1.5-1.4,2.4-3.4,2.4S45.9,52.2,45.9,50.7Z" fill="url(#a)"/><path d="M53.8,48.1h1.4l4.2,4.1h.1V48.1h1v5H59.2L54.9,49h-.1v4.1h-1v-5Z" fill="url(#a)"/><path d="M61.7,48.1h5.7v.6H62.7v1.5h4.7v.6H62.7v1.6h4.7V53H61.7Z" fill="url(#a)"/><path d="M28.4,56.9h.4l.4,1.6h0l.3-1.6h.6l.3,1.6h0l.4-1.6h.4l-.5,1.9h-.6l-.4-1.6h0l-.4,1.6h-.6Z" fill="url(#a)"/><path d="M31.6,56.9H32v1.9h-.4Z" fill="url(#a)"/><path d="M33.1,57.3h-.8V57h2.1v.3h-.8v1.6h-.4V57.3Z" fill="url(#a)"/><path d="M34.5,56.9h.4v.8h1.2v-.8h.4v1.9h-.4V58H34.9v.8h-.4Z" fill="url(#a)"/><path d="M20.9,57.5a2.485,2.485,0,0,1-.8.1,3.4,3.4,0,0,1-1,.1,2.769,2.769,0,0,1-.9.1c-.3,0-.5.1-.8.1-.5,0-1,.1-1.5.1h-.4a7.569,7.569,0,0,0-1.5.1,8.585,8.585,0,0,0-1.7.3,3.506,3.506,0,0,0-1.4.6c-.2.1-.3.3-.6.4a.908.908,0,0,0-.3.7,1.063,1.063,0,0,0,.1.8l.3.3.2.2v.1c-.1,0-.1,0-.2-.1a1.8,1.8,0,0,1-.6-.9,1.183,1.183,0,0,1,.1-1,1.7,1.7,0,0,1,.6-.6,3.088,3.088,0,0,1,1.4-.7c.4-.1.8-.2,1.3-.3a4.869,4.869,0,0,1,1.2-.1h1.8c.4,0,.8-.1,1.2-.1a7.569,7.569,0,0,1,1.5-.1c.5-.1,1-.1,1.5-.2a4.331,4.331,0,0,1,.5-.1,1.38,1.38,0,0,0,.4-.3c.3-.3.5-.7.8-1a3.915,3.915,0,0,1,1-.8,7.459,7.459,0,0,1,1.2-.7,4.22,4.22,0,0,1,1.2-.3h.4c.1,0,.3.2.2.3l-.3.6a5.471,5.471,0,0,1-1.1,1c-.3.2-.7.4-1,.6a13.356,13.356,0,0,1-1.8.7,1.555,1.555,0,0,0-.8.6c-.3.6-.6,1.2-.9,1.9-.2.6-.4,1-.6,1.6-.1.2,0,.3.2.3a4.1,4.1,0,0,1,1.1-.1,2.485,2.485,0,0,1,.8-.1,7.569,7.569,0,0,1,1.5-.1c.6,0,1.3-.1,1.9-.1a3.4,3.4,0,0,1,1,.1c.4.1.8.1,1.2.2a.215.215,0,0,1,.2.2c0,.1.1.2.2.1a3.287,3.287,0,0,0,.6-.3c.1-.1.2,0,.3.1a.367.367,0,0,1,.1.3,5.938,5.938,0,0,1-.4.8,16.673,16.673,0,0,1-1.2,1.6l-.3.3-.1.1a.1.1,0,0,1,.1.1,3.675,3.675,0,0,0,1.5-.8,2.075,2.075,0,0,1,1-.6.215.215,0,0,0,.2-.2c.3-.5.5-.9.8-1.4a3.845,3.845,0,0,1,.9-.9.3.3,0,0,1,.4,0,.6.6,0,0,1,.1.4,5.3,5.3,0,0,1-.6,1,6.07,6.07,0,0,1-.7,1c-.3.4-.7.8-1,1.2-.1.1-.1.2-.2.3a.1.1,0,0,0,.1.1c.2-.1.5-.1.7-.3a4.169,4.169,0,0,1,.6-.2c.3-.1.4-.3.6-.5.1-.2.3-.3.4-.6a.6.6,0,0,1,.6-.3c.2,0,.3.2.2.4a1.756,1.756,0,0,1-.4.5,2.181,2.181,0,0,1-.5.4.31.31,0,0,0-.1.2c.1.1.1.1.3.1a1.952,1.952,0,0,0,.7-.1c.3-.1.7-.1,1-.2q.3-.15.3-.3a6.89,6.89,0,0,1,.3-.8,2.036,2.036,0,0,1,.6-.7c.3-.1.6-.3.8-.2a.567.567,0,0,1,.4.8c-.1.3-.3.4-.5.6a5.547,5.547,0,0,0-.8.6.1.1,0,0,0-.1.1.1.1,0,0,1,.1.1,5.662,5.662,0,0,0,1.8-.3l.6-.3c.1,0,.1-.1.3-.1l.1.1c-.1.1-.1.3-.3.3a5.171,5.171,0,0,1-1.3.6c-.3.1-.6.1-.9.2h-.1c-.2.2-.5.1-.7,0a.614.614,0,0,0-.6-.1c-.1,0-.3.1-.4.1a10.1,10.1,0,0,1-1.7.3c-.2,0-.3-.1-.5-.2-.1-.2-.3-.1-.5-.1-.3.1-.8.3-1.1.4-.2.1-.3.1-.5-.1a.367.367,0,0,0-.3-.1c-.3.1-.5.2-.8.3-.1.1-.4-.1-.4-.3,0-.3,0-.3-.3-.2a1.083,1.083,0,0,1-.6.1c-.1,0-.1,0-.2-.1-.2-.1-.3-.1-.6.1s-.8.3-1.1.5a.471.471,0,0,1-.6-.1.367.367,0,0,1-.1-.3c0-.1-.1-.2-.2-.1-.3.1-.6.1-.9.2a1.087,1.087,0,0,1-.5-.1c-.3-.1-.4-.1-.6.1a1.689,1.689,0,0,1-1,.3c-.3.1-.6-.3-.6-.6,0-.1.1-.3.1-.4a.1.1,0,0,0-.1-.1.367.367,0,0,1-.3.1c-.3.2-.5.4-.8.6-.1.1-.1.2-.2.3s-.1.2-.3.2-.2-.1-.3-.2,0-.1.1-.2c.3-.3.7-.6,1-.9a3.915,3.915,0,0,1,1-.8,3.915,3.915,0,0,1,1-.8c.1-.1.1-.1.2,0,.1,0,.1.1.1.2s0,.3-.1.3l-.1.1a7.459,7.459,0,0,0-.7,1.2.367.367,0,0,0-.1.3c0,.2.1.3.2.2a4.053,4.053,0,0,0,.9-.5.1.1,0,0,0,.1-.1,1.826,1.826,0,0,1,.8-1.3,2.729,2.729,0,0,1,1.3-.7c.1,0,.3,0,.3.1a.187.187,0,0,1,0,.3c-.3.3-.6.7-.9,1l-.6.6c-.1.1-.1.1,0,.2h.4c.3-.1.8-.2,1.1-.3a.918.918,0,0,0,.6-.4,6.376,6.376,0,0,1,1.4-.8,1.332,1.332,0,0,0,.5-.3,8.794,8.794,0,0,0,.6-1c.1-.1,0-.3-.2-.3-.1,0-.2,0-.2-.1-.1-.2-.3-.2-.5-.3a6.6,6.6,0,0,0-1.4-.1,12.052,12.052,0,0,0-1.9,0c-.6,0-1,.1-1.6.1-.3,0-.6.1-1,.1a2.2,2.2,0,0,1-.8.1.367.367,0,0,0-.3.1.821.821,0,0,0-.5.5c-.2.7-.5,1.5-.7,2.1-.2.7-.5,1.3-.7,2a26.043,26.043,0,0,1-1,2.5,16.18,16.18,0,0,1-1,1.8c-.2.3-.5.6-.8,1a5.547,5.547,0,0,1-.6.8,5.826,5.826,0,0,1-1.5,1.1,4.875,4.875,0,0,1-1.1.4,2.766,2.766,0,0,1-2.4-.6,4.013,4.013,0,0,1-1.5-3.7c.6-.3.6-.9.8-1.4A5.67,5.67,0,0,1,9,66.9c.3-.3.6-.7.9-1a8.467,8.467,0,0,1,1.9-1.4,12.445,12.445,0,0,1,2-1c.6-.2,1-.5,1.6-.7.4-.1.8-.3,1.2-.4a5.274,5.274,0,0,1,1.2-.3,2.2,2.2,0,0,1,.8-.1.781.781,0,0,0,.4-.4c.3-.9.8-1.7,1.1-2.6l.6-1.2Zm-2,4.5h-.2c-.3.1-.5.1-.8.2l-2.1.6a8.353,8.353,0,0,0-1.9.8c-.1.1-.3.1-.5.2a5.3,5.3,0,0,0-1,.6l-.9.6c-.2.1-.3.3-.5.4a3.043,3.043,0,0,0-.8.8,2.651,2.651,0,0,1-.5.6c-.1.1-.3.3-.3.4-.1.1-.1.3-.3.6-.1.3-.3.5-.4.8a5.274,5.274,0,0,0-.3,1.2v1.3a2.544,2.544,0,0,0,.2.7,3.956,3.956,0,0,0,1,1.5,2.317,2.317,0,0,0,2.5.4,5.854,5.854,0,0,0,1.7-1,17.383,17.383,0,0,0,1.3-1.5,8.175,8.175,0,0,0,1.2-2c.3-.6.5-1.2.7-1.7.2-.4.3-.9.5-1.4.1-.3.2-.6.3-1,.1-.5.3-.9.4-1.3s.3-.8.4-1.2Zm7-7.5a.1.1,0,0,0-.1-.1h-.4c-.3.1-.7.2-1,.3a5.937,5.937,0,0,0-.8.4,3.482,3.482,0,0,0-1.3,1.1c-.1.2-.2.3-.3.5v.1h.1c.3-.1.6-.1.8-.3.7-.3,1.3-.6,1.9-.9a11.09,11.09,0,0,0,1.1-1.1Zm9.7,8.6c0-.1-.1-.3-.3-.2-.6.1-.8.6-1,1.1v.1h.1a4.44,4.44,0,0,0,1.1-.8A.31.31,0,0,0,35.6,63.1Zm-4.3-1.6a.1.1,0,0,1-.1-.1.31.31,0,0,1-.2.1c-.1.1-.2.3-.3.4a2.384,2.384,0,0,0-.6,1.1v.1h.1c.1-.1.1-.1.1-.2a8.341,8.341,0,0,0,.8-1.2C31.2,61.7,31.3,61.5,31.3,61.5Zm-5.1,2.8h0a3.582,3.582,0,0,0-1.1.4.821.821,0,0,0-.5.5h.2a3.293,3.293,0,0,0,1.3-.7A.31.31,0,0,0,26.2,64.3Zm-2.5-1.2h0a1.758,1.758,0,0,0-1.2,1v.1h.1A2.345,2.345,0,0,0,23.7,63.1Zm4.2,1.8h0l.1.1.6-.3a.6.6,0,0,0,.3-.6A1.774,1.774,0,0,0,27.9,64.9Zm.1-2.8a2.589,2.589,0,0,0-.7,1.1A3.377,3.377,0,0,0,28,62.1Z" fill="url(#a)"/><path d="M50.3,76c-.3-.1-.6-.1-1-.2-.2-.1-1.9-1.1-2.6-1.5a6.268,6.268,0,0,1-1.9-1.7,20.948,20.948,0,0,1-1.4-1.7,16.287,16.287,0,0,1-1.1-1.7,10.93,10.93,0,0,1-.8-1.5c-.2-.6-.4-1-.6-1.6-.1-.4-.3-.8-.4-1.2,0-.1-.1-.1-.1-.3a.758.758,0,0,0-.2.4c-.3.5-.5,1-.8,1.5l-.6.9c-.1.1-.3.2-.4.3h-.1a4.17,4.17,0,0,0,.2-.6,8.175,8.175,0,0,1,1.2-2,.845.845,0,0,0,.2-.6c0-.1.1-.2.1-.3a1.949,1.949,0,0,0,.1-.8c0-.2-.1-.5.1-.7a1.057,1.057,0,0,1,.7-.6,1.265,1.265,0,0,0,1-.7,5.3,5.3,0,0,0,.8-1.5,3.629,3.629,0,0,1,.3-.7,2.361,2.361,0,0,0-.9.6,6.034,6.034,0,0,1-.8.8c.1-.1.2-.3.3-.4.3-.3.5-.7.8-1a1.506,1.506,0,0,1,.8-.4c.1,0,.2,0,.2.1,0,.2-.1.4-.1.6L42.7,61a9.25,9.25,0,0,1-.5,1,.638.638,0,0,0,.6,0,6.149,6.149,0,0,0,1.1-.3c.4-.1.8-.3,1.2-.4s.8-.3,1.1-.4.6-.3.9-.4c.4-.2.9-.4,1.3-.6.1-.1.3-.1.5-.2a.1.1,0,0,0,.1-.1l.1-.1c.1-.1.2-.1.4-.1.1,0,.3-.1.3-.2a6.479,6.479,0,0,0,1.6-1.7,2.01,2.01,0,0,0,.4-1.3c0-.3-.2-.4-.3-.6a1.676,1.676,0,0,0-1.2-.3,3.334,3.334,0,0,0-1,0c-.4,0-.8.1-1.3.1-.4.1-.8.1-1.1.2a3.178,3.178,0,0,0-.9.3,6.89,6.89,0,0,0-.8.3c-.5.2-1,.4-1.4.6a14,14,0,0,0-1.6,1,5.547,5.547,0,0,0-.8.6,2.336,2.336,0,0,0-.7.7,7.006,7.006,0,0,0-.8,1,8.342,8.342,0,0,0-.8,1.2,2.375,2.375,0,0,0-.3,1.2c0,.3-.1.7-.1,1-.1.3-.1.5-.4.7v-.6c.1-.4.1-.8.2-1.2.1-.2.1-.5.2-.7.1-.1.1-.3.2-.4l.3-.6.3-.6a2.723,2.723,0,0,1,.8-1l.2-.2.3-.3c.1-.1.2-.3.3-.4l.1-.1a2.407,2.407,0,0,0,.8-.6c.1,0,.1,0,.1-.1l.1-.1a17.377,17.377,0,0,0,1.9-1,5.3,5.3,0,0,0,1-.6,7.579,7.579,0,0,1,1.6-.6c.1,0,.3-.1.4-.1.3.1.6-.1.8-.1a2.485,2.485,0,0,1,.8-.1h.8a4.245,4.245,0,0,1,1.9.6,1.022,1.022,0,0,1,.4,1,3.115,3.115,0,0,1-.7,1.8,5.845,5.845,0,0,1-1.3,1.4,9.633,9.633,0,0,1-2,1.2c-.4.2-.8.3-1.2.5a20.156,20.156,0,0,1-2.3.7,8.447,8.447,0,0,0-1.7.5,3.81,3.81,0,0,0-1,.3,1.411,1.411,0,0,0-.8,1.2,4.954,4.954,0,0,0,.2,1.7c.2.6.5,1.2.8,1.9a9.993,9.993,0,0,1,.8,1.4,15.258,15.258,0,0,0,1.1,1.6A13.444,13.444,0,0,0,44.8,72a9.428,9.428,0,0,0,1,1,7.551,7.551,0,0,0,1.4,1.1,13.028,13.028,0,0,1,1.5,1,4.33,4.33,0,0,0,1.6.9C50.5,76,50.8,76.1,50.3,76ZM40.5,63.7c.2-.3.4-.7.6-1C40.7,62.6,40.3,63.1,40.5,63.7Z" fill="url(#a)"/><path d="M50.5,65.7a2.2,2.2,0,0,0,.1-.8.215.215,0,0,0-.2-.2c-.3.1-.6.1-1,.2a2.769,2.769,0,0,1-.9.1c-.2.1-.3,0-.5-.1a.85.85,0,0,1-.3-.5,4.331,4.331,0,0,0,.1-.5,1.555,1.555,0,0,1,.6-.8,3.6,3.6,0,0,1,1.2-.8h.3c.1.1.2.2.1.3-.1.2-.1.4-.3.6a2.7,2.7,0,0,1-.8.7,5.938,5.938,0,0,1-.8.4c-.1.1-.1.1,0,.2s.3.1.6.1c.6-.1,1.1-.2,1.7-.3a1.275,1.275,0,0,0,.6-.4,15.054,15.054,0,0,1,1-1.7,9.549,9.549,0,0,1,1.2-1.6,4.125,4.125,0,0,1,1.3-1,2.768,2.768,0,0,1,1.3-.3c.3,0,.5.1.4.5,0,.2-.1.4-.1.6a2.186,2.186,0,0,0-.3.5,1.555,1.555,0,0,1-.6.8,6.034,6.034,0,0,1-.8.8c-.1.2-.3.3-.6.6-.1.1-.3.2-.4.3s-.3.2-.4.3c-.3.2-.8.4-1.1.6-.3.1-.5.2-.8.3-.2.1-.3.2-.3.4,0,.3-.1.6-.1.9,0,.1,0,.2-.1.2s-.2,0-.2-.1C50.6,66,50.4,65.8,50.5,65.7ZM56.1,60c0-.2-.1-.3-.2-.3a1.268,1.268,0,0,0-.6.1,2.925,2.925,0,0,0-1.2.7l-.9.9c-.1.1-.1.2-.2.3l-.3.3-.1.1c-.3.5-.6,1-.8,1.4-.1.1-.1.3-.2.4,0,.1,0,.1.1.1s.1-.1.2-.1a9.147,9.147,0,0,0,1.7-.9,8.744,8.744,0,0,1,1-.8l.8-.8a4.129,4.129,0,0,0,.7-1.1C56,60.2,56.1,60.1,56.1,60Zm-6.6,2.9c-.4.1-1,.6-1,.8.1,0,.1,0,.1-.1a1.555,1.555,0,0,0,.8-.6C49.5,63.1,49.5,63,49.5,62.9Z" fill="url(#a)"/><path d="M46.4,64.2l.3-.3a9.016,9.016,0,0,1,1-.9c.3-.3.8-.7,1.1-1l.5-.5a.367.367,0,0,1,.3-.1c.1,0,.2,0,.2.1a.192.192,0,0,1-.1.3l-.1.1-.1.1c-.2-.1-.3.1-.4.2l-.8.8a2.181,2.181,0,0,1-.5.4.769.769,0,0,0-.2.3c-.3.3-.7.6-1,.9a2.181,2.181,0,0,0-.4.5l-.3.3c-.1.1-.3-.1-.3-.2s.1-.2.1-.3v-.1a.1.1,0,0,1-.1-.1,3.33,3.33,0,0,1-.6.3c-.3.1-.5.2-.8.3a.6.6,0,0,1-.4.1c-.1,0-.3-.1-.3-.2-.1-.2-.1-.2-.3-.1a3.552,3.552,0,0,1-.9.4c-.3.1-.6-.1-.5-.4a3.329,3.329,0,0,1,.3-.6,6.1,6.1,0,0,1,1.5-1.3c.3-.2.6-.3.9-.5a.192.192,0,0,1,.3.1c.1.2,0,.3-.1.6a8.65,8.65,0,0,0-.7,1,.367.367,0,0,0-.1.3c-.1.2.1.3.2.2a6.889,6.889,0,0,0,.8-.3c.3-.2.8-.4,1.1-.6.2-.1.3-.3.6-.4a.6.6,0,0,1,.4-.1.3.3,0,0,1,0,.4l-.1.1C46.5,63.9,46.4,64,46.4,64.2Zm-2.7-.9h0c-.1,0-.2.1-.3.1-.2.1-.3.3-.6.4a3.45,3.45,0,0,0-.8.9c0,.1,0,.1.1.1h.1a3.179,3.179,0,0,0,1.2-1.1C43.6,63.6,43.7,63.5,43.7,63.3Z" fill="url(#a)"/><path d="M33.9,60.9c0,.1-.1.1-.1.2,0-.1-.2-.1-.2-.1a.208.208,0,0,1,0-.4c.2-.1.3,0,.3.2,0,0,0,0,0,.1Z" fill="url(#a)"/><path d="M25.3,9.2a1.421,1.421,0,0,1-.2-.6c.1-.3.3.2-3.2-6.1-.1.1-.2.1-.4.2v.1C22.7,4.6,24.5,7.8,25.3,9.2Z" fill-rule="evenodd" fill="url(#t)"/><path d="M22.6,11.2c-.1-.2-.3-.4-.3-.5-.1-.3.3.2-4.6-5.2l-.3.3v.1C19,7.4,21.6,10,22.6,11.2Z" fill-rule="evenodd" fill="url(#u)"/><path d="M20.4,14,14,10.2h-.1c-.4.6-.7,1.3-1.1,2,.8.3,6,2.7,6.1,2.7.1.1.2-.1.2-.2.1-.1.3-.6.4-.7.1-.2.4-.1.5-.1-.4-.1-.4,0-.6.5-.1.1-.1.2-.2.4-.1.3.1.5.4.6h.2a6.109,6.109,0,0,1,.7-1.4C20.5,14.1,20.5,14,20.4,14Z" fill-rule="evenodd" fill="url(#v)"/><path d="M25.1,32.4l-3.8,6.4v.1a12.445,12.445,0,0,0,2,1c.3-.7,2.8-6.1,2.8-6.1.1-.1-.1-.2-.2-.2-.6-.3-.6-.3-.7-.4-.2-.1-.1-.4-.1-.5,0,.1-.1.3.1.4a5.938,5.938,0,0,0,.8.4c.3.2.7-.3.6-.5-.5-.2-1-.5-1.4-.7A.1.1,0,0,0,25.1,32.4Z" fill-rule="evenodd" fill="url(#w)"/><path d="M18.6,22.6l-7.4,1c-.1,0-.1,0-.1.1.1.7.3,1.5.4,2.2.8-.2,6.5-1.6,6.5-1.6.2-.1.1-.3,0-.6v-.5c-.1-.2.2-.3.4-.4-.3.2-.3.2,0,1.2a.5.5,0,0,0,.8.2,7.972,7.972,0,0,1-.3-1.5A.367.367,0,0,0,18.6,22.6Z" fill-rule="evenodd" fill="url(#x)"/><path d="M21.1,28.7l-6,4.4a.1.1,0,0,0-.1.1A21.965,21.965,0,0,0,16.4,35c.7-.6,4.5-4.1,5-4.5.1-.1,0-.2-.5-.8-.1-.1-.3-.3.1-.6-.1.1-.2.3-.1.4.6.7.6.9,1,.8.2-.1.4-.2.4-.3a10.591,10.591,0,0,1-1-1.2A.31.31,0,0,0,21.1,28.7Z" fill-rule="evenodd" fill="url(#y)"/><path d="M19.5,25.8l-6.9,2.8a.1.1,0,0,0-.1.1,12.445,12.445,0,0,0,1,2c.7-.4,5.7-3,5.9-3.2.2-.1,0-.2-.2-.6l-.2-.4c-.1-.2.2-.4.3-.4-.3.3-.3.2.3,1.2.2.3.8.2.8,0-.3-.5-.5-1-.7-1.4A.31.31,0,0,0,19.5,25.8Z" fill-rule="evenodd" fill="url(#z)"/><path d="M19,17.1l-7.2-2h-.1a14.191,14.191,0,0,0-.5,2.2c.9.2,6.1,1,6.6,1.1.2,0,.1-.1.3-1,.1-.2.3-.2.5-.2-.4.1-.3.1-.5,1.1-.1.4.5.6.6.5.1-.5.2-1.1.3-1.5C19.1,17.2,19.1,17.2,19,17.1Z" fill-rule="evenodd" fill="url(#aa)"/><path d="M42.8,12.9l6-4.4h0a21.965,21.965,0,0,0-1.4-1.8c-.8.7-4.4,4-4.9,4.5-.1.1-.1.1,0,.2.5.6.3.3.5.6.1.1.3.3-.1.6.2-.3.2-.3-.5-1.1-.2-.3-.8,0-.8.2A14.96,14.96,0,0,1,42.7,13,.1.1,0,0,0,42.8,12.9Z" fill-rule="evenodd" fill="url(#ab)"/><path d="M44.4,15.9l6.9-2.8h.1a19.986,19.986,0,0,0-1-2.1c-.9.4-5.7,3-5.9,3.2-.1.1-.1.2.1.3.2.3,0,0,.3.7.1.2-.2.4-.3.4.3-.3.2-.3-.1-.8-.1-.1-.1-.2-.2-.4a.423.423,0,0,0-.7-.1.1.1,0,0,0-.1.1,10.092,10.092,0,0,1,.7,1.5Z" fill-rule="evenodd" fill="url(#ac)"/><path d="M45.3,19.1l7.4-1h.1c-.1-.7-.3-1.5-.4-2.2-.9.2-6.4,1.5-6.5,1.6-.1,0-.1.1-.1.2.1.5.1.3.2.9.1.2-.2.3-.4.4.3-.2.3-.2.1-1.2-.1-.3-.7-.4-.8-.2a4.529,4.529,0,0,1,.3,1.6C45.1,19.1,45.2,19.1,45.3,19.1Z" fill-rule="evenodd" fill="url(#ad)"/><path d="M24.1,9.9l-4.4-6-.1-.1a21.964,21.964,0,0,0-1.8,1.4c.6.7,4.2,4.6,4.5,5,.1.1.1.1.2,0,.6-.5.3-.3.6-.5.1-.1.3-.3.6.1-.3-.2-.3-.2-1.1.5-.3.2,0,.9.2.8a10.592,10.592,0,0,1,1.2-1C24.1,10.1,24.1,10,24.1,9.9Z" fill-rule="evenodd" fill="url(#ae)"/><path d="M27,8.3,24.2,1.4V1.3a19.987,19.987,0,0,0-2.1,1c.4.8,3,5.7,3.2,5.9.1.1.2.1.3-.1.3-.2,0,0,.7-.3.2-.1.4.2.4.3-.3-.3-.3-.2-.8.1-.1.1-.2.1-.4.2a.423.423,0,0,0-.1.7l.1.1c.5-.3,1-.5,1.4-.7C27,8.5,27,8.4,27,8.3Z" fill-rule="evenodd" fill="url(#af)"/><path d="M38.8,9.3l3.8-6.4h0c-.6-.4-1.3-.7-2-1.1-.4.9-2.8,6-2.8,6.1-.1.2.1.1.8.5.2.1.3.2.2.6,0-.1.1-.3-.1-.4a5.938,5.938,0,0,0-.8-.4c-.3-.1-.5.1-.6.4v.1c.5.2,1,.5,1.4.7A.1.1,0,0,1,38.8,9.3Z" fill-rule="evenodd" fill="url(#ag)"/><path d="M30.2,7.5,29.2.1V0A16.958,16.958,0,0,0,27,.4c.2,1,1.5,6.4,1.6,6.5,0,.1.1.1.2.1.4-.1.2,0,.8-.1.2-.1.4.2.4.4-.2-.3-.2-.3-1.2-.1-.4.1-.4.8-.2.8a4.146,4.146,0,0,1,1.6-.3Z" fill-rule="evenodd" fill="url(#ah)"/><path d="M35.6,7.9l2-7.2V.6A14.191,14.191,0,0,0,35.4.1c-.2,1.1-1,5.9-1.1,6.6,0,.2.2.2.3.2a3.125,3.125,0,0,0,.7.2c.2.1.2.3.2.5-.1-.4,0-.3-1.1-.5-.4-.1-.7.4-.5.6.5.1,1.1.2,1.6.3A.1.1,0,0,0,35.6,7.9Z" fill-rule="evenodd" fill="url(#ai)"/><path d="M43.5,27.7l6.4,3.8H50c.4-.6.7-1.3,1.1-2-.8-.4-6-2.7-6.1-2.8-.2-.1-.2.1-.4.5a1.425,1.425,0,0,0-.2.4c-.1.2-.4.1-.5.1.4.1.4,0,.6-.5.1-.1.1-.2.2-.4.2-.3-.3-.7-.5-.6-.2.5-.5,1-.7,1.4C43.4,27.6,43.5,27.7,43.5,27.7Z" fill-rule="evenodd" fill="url(#aj)"/><path d="M45.8,23.4a3.126,3.126,0,0,0-.2.7c-.1.2-.3.2-.5.2.4-.1.3,0,.5-1.1.1-.4-.5-.6-.6-.5-.1.5-.2,1.1-.3,1.6a.1.1,0,0,0,.1.1L52,26.5h.1a14.191,14.191,0,0,0,.5-2.2c-1.1-.2-5.9-1-6.6-1.1A.215.215,0,0,0,45.8,23.4Z" fill-rule="evenodd" fill="url(#ak)"/><path d="M28.3,33.7l-2,7.2V41a14.191,14.191,0,0,0,2.2.5c.1-.8,1-6.1,1.1-6.6,0-.2-.2-.2-.3-.2a3.126,3.126,0,0,0-.7-.2c-.2-.1-.2-.3-.2-.5.1.4.1.3.6.5a.749.749,0,0,0,.5.1.758.758,0,0,0,.4-.2c.1-.1.3-.4.2-.5-.5-.1-1.1-.2-1.6-.3A.349.349,0,0,0,28.3,33.7Z" fill-rule="evenodd" fill="url(#al)"/><path d="M39.8,31.7l4.4,6,.1.1a21.965,21.965,0,0,0,1.8-1.4c-.5-.6-4.2-4.6-4.5-5-.1-.1-.2,0-.8.5-.1.1-.3.3-.6-.1.1.1.3.2.4.1.7-.6.9-.6.8-1a.446.446,0,0,0-.3-.4,14.961,14.961,0,0,1-1.3,1.1S39.8,31.7,39.8,31.7Z" fill-rule="evenodd" fill="url(#am)"/><path d="M33.7,34.1l1,7.4c0,.1,0,.1.1.1.7-.1,1.5-.3,2.2-.4-.2-.7-1.6-6.5-1.6-6.5-.1-.2-.3-.1-.6,0a1,1,0,0,1-.4.1c-.2.1-.3-.2-.4-.4.2.3.2.3,1.2.1a.517.517,0,0,0,.3-.7.1.1,0,0,0-.1-.1,4.529,4.529,0,0,1-1.6.3A.1.1,0,0,0,33.7,34.1Z" fill-rule="evenodd" fill="url(#an)"/><path d="M36.9,33.3l2.8,6.9a.1.1,0,0,0,.1.1,12.445,12.445,0,0,0,2-1c-.4-.7-3-5.7-3.2-5.9-.1-.1-.1-.1-.2-.1-.5.2-.3.2-.8.4-.2.1-.4-.2-.4-.3.3.3.2.3,1.2-.3.3-.2.2-.8,0-.8-.5.3-1,.5-1.4.7C36.9,33.2,36.9,33.2,36.9,33.3Z" fill-rule="evenodd" fill="url(#ao)"/><path d="M38.6,32.5a1.421,1.421,0,0,1,.2.6c-.1.3-.3-.2,3.2,6.1.1-.1.2-.1.3-.2v-.1C41.2,37,39.4,33.9,38.6,32.5Z" fill-rule="evenodd" fill="url(#ap)"/><path d="M18.4,24.4c-.3-.1.3-.2-6.8,1.6a.6.6,0,0,1,.1.4h.1c2.1-.6,5.7-1.5,7.2-2A.629.629,0,0,1,18.4,24.4Z" fill-rule="evenodd" fill="url(#aq)"/><path d="M41.2,30.5c.1.2.3.4.3.5.1.3-.3-.2,4.6,5.2l.3-.3c0-.1,0-.1-.1-.1C44.9,34.3,42.3,31.6,41.2,30.5Z" fill-rule="evenodd" fill="url(#ar)"/><path d="M12.7,12.8c2.1.9,5.4,2.3,6.9,2.9a2.181,2.181,0,0,1-.5-.4c-.2-.3.4.1-6.3-2.9a1.034,1.034,0,0,0-.1.4Z" fill-rule="evenodd" fill="url(#as)"/><path d="M19.7,27.6a.367.367,0,0,0-.3.1c-.6.3-5,2.7-5.9,3.2.1.1.1.2.2.3h.1c1.9-1.1,5.1-2.9,6.5-3.7A1.268,1.268,0,0,1,19.7,27.6Z" fill-rule="evenodd" fill="url(#at)"/><path d="M28.4,7.9a.629.629,0,0,1,0-.6c.1-.3.2.3-1.6-6.7a.756.756,0,0,1-.4.1V.8C27,2.9,27.9,6.4,28.4,7.9Z" fill-rule="evenodd" fill="url(#au)"/><path d="M51.2,28.9c-2.1-.9-5.4-2.3-6.9-2.9a2.181,2.181,0,0,1,.5.4c.2.3-.4-.1,6.3,2.9a.6.6,0,0,0,.1-.4Z" fill-rule="evenodd" fill="url(#av)"/><path d="M26.4,33.7c-.3.2.1-.4-2.9,6.3.1.1.2.1.3.2a.1.1,0,0,0,.1-.1c.9-2.1,2.3-5.4,2.9-6.9C26.6,33.4,26.5,33.6,26.4,33.7Z" fill-rule="evenodd" fill="url(#aw)"/><path d="M35.5,33.7a.629.629,0,0,1,0,.6c-.1.3-.2-.3,1.6,6.8a.6.6,0,0,1,.4-.1v-.1C36.9,38.8,35.9,35.2,35.5,33.7Z" fill-rule="evenodd" fill="url(#ax)"/><path d="M37.5,8c.2-.2-.1.4,2.9-6.2-.1-.1-.3-.1-.4-.2h0c-.9,2.1-2.3,5.4-2.9,6.9A2.181,2.181,0,0,1,37.5,8Z" fill-rule="evenodd" fill="url(#ay)"/><path d="M18.7,19a3.329,3.329,0,0,1-.6-.3c-.2-.2.3-.1-6.8-1.2,0,.1-.1.3-.1.4l.1.1C13.5,18.3,17.1,18.7,18.7,19Z" fill-rule="evenodd" fill="url(#az)"/><path d="M35.2.2c-.2,0-.3-.1-.4-.1V.2c-.3,2.2-.8,5.8-1,7.4a3.329,3.329,0,0,1,.3-.6C34.2,6.8,34.1,7.3,35.2.2Z" fill-rule="evenodd" fill="url(#ba)"/><path d="M21.7,30.4c-.3.1.2-.3-5.2,4.6l.3.3c.1,0,.1,0,.1-.1,1.6-1.5,4.2-4.1,5.4-5.2C22.1,30.2,21.9,30.4,21.7,30.4Z" fill-rule="evenodd" fill="url(#bb)"/><path d="M44.2,14c.3.1-.2.3,6.1-3.2a.758.758,0,0,1-.2-.4H50c-1.9,1.1-5.1,2.9-6.5,3.7A5.639,5.639,0,0,0,44.2,14Z" fill-rule="evenodd" fill="url(#bc)"/><path d="M28.6,41.5c.1,0,.3.1.4.1a.1.1,0,0,0,.1-.1c.3-2.2.8-5.8,1-7.4a3.329,3.329,0,0,1-.3.6C29.6,34.9,29.8,34.3,28.6,41.5Z" fill-rule="evenodd" fill="url(#bd)"/><path d="M45.5,17.2c.3.1-.3.2,6.7-1.6a.756.756,0,0,1-.1-.4H52c-2.1.6-5.7,1.5-7.2,2Z" fill-rule="evenodd" fill="url(#be)"/><path d="M45.2,22.7a3.329,3.329,0,0,1,.6.3c.2.2-.3.1,6.8,1.2,0-.2.1-.3.1-.4h-.1C50.4,23.4,46.8,22.9,45.2,22.7Z" fill-rule="evenodd" fill="url(#bf)"/><path d="M42.1,11.3c.1,0,.2-.1.3-.1.4-.3,4.1-3.8,4.9-4.5L47,6.4h0c-1.6,1.5-4.2,4.1-5.4,5.2A.914.914,0,0,1,42.1,11.3Z" fill-rule="evenodd" fill="url(#bg)"/><path d="M15.6,7.7l-.3.3,6.9,5.7c.1-.1.3-.3.3-.4C21.2,12.2,19.1,10.5,15.6,7.7Z" fill-rule="evenodd" fill="url(#bh)"/><path d="M31.7,12.7A1.3,1.3,0,1,1,30.4,14a1.26,1.26,0,0,1,1.3-1.3Z" fill-rule="evenodd" fill="url(#bi)"/><path d="M40.8,13.4a10.54,10.54,0,0,1-1.1.7,7.973,7.973,0,0,1-1.6.8,11.98,11.98,0,0,1-2.7.7,16.413,16.413,0,0,1-2.3.2l-1.3,1.7-1.3-1.7a18.507,18.507,0,0,1-4.7-.8c-.4-.2-.9-.3-1.3-.5a5.507,5.507,0,0,1-1.4-.9,1.756,1.756,0,0,0-.4.5,13.132,13.132,0,0,1,1.4,1.2,15.86,15.86,0,0,0,2.7,1.8,15.713,15.713,0,0,0,2.3.9l2.3,14.3h1L34.3,18l.1-.1a11.663,11.663,0,0,0,2.6-1h0a14.648,14.648,0,0,0,2.1-1.4c.1-.1.1-.1.2-.1l.2-.2.1-.1a.1.1,0,0,0,.1-.1h0c.6-.6,1.1-1,1.5-1.4Z" fill-rule="evenodd" fill="url(#bj)"/><path d="M32,7.5c0-1.7,0-4.1.1-7.5h-.4c.1,3.4.1,5.8.1,7.5Z" fill="url(#bk)"/><path d="M18.6,37.2a1.38,1.38,0,0,0,.4.3c2.2-2.8,3.7-4.8,4.8-6.1-.1-.1-.2-.1-.2-.2C22.4,32.5,20.8,34.4,18.6,37.2Z" fill="url(#bl)"/><path d="M45.1,4.7l-.3-.3c-2,2.6-3.5,4.5-4.6,5.9.1.1.2.2.3.2C41.4,9.2,42.9,7.3,45.1,4.7Z" fill="url(#bm)"/><path d="M31.7,34.1c0,1.8-.1,4.3-.1,7.8H32c-.1-3.5-.1-6-.1-7.8h-.2Z" fill="url(#bn)"/><path d="M52.8,21.1v-.4c-4.2.1-5.9.1-7.5.1V21C46.9,21,48.6,21.1,52.8,21.1Z" fill="url(#bo)"/><path d="M48.1,34.1a1.38,1.38,0,0,0,.3-.4c-2.7-2.1-4.6-3.6-6-4.7-.1.1-.1.2-.2.2C43.5,30.4,45.4,32,48.1,34.1Z" fill="url(#bp)"/><path d="M18.6,20.8c-1.8,0-4.2-.1-7.7-.1v.5c3.5-.1,6-.1,7.7-.1v-.3Z" fill="url(#bq)"/></svg>