<svg xmlns="http://www.w3.org/2000/svg" xmlns:xlink="http://www.w3.org/1999/xlink" width="1217.184" height="88.718" viewBox="0 0 1217.184 88.718">
  <defs>
    <linearGradient id="linear-gradient" x1="0.94" y1="1" x2="0.073" y2="1" gradientUnits="objectBoundingBox">
      <stop offset="0" stop-color="#91742d"/>
      <stop offset="0.508" stop-color="#fffea6"/>
      <stop offset="1" stop-color="#91742d"/>
    </linearGradient>
  </defs>
  <g id="lifeintune-logo-horizontal-no-logo" transform="translate(-599.286 -459.341)">
    <path id="Intersection_1" data-name="Intersection 1" d="M805.554,98.1V51.341h16.785V98.1c0,17.984,16.784,31.171,41.962,31.171s41.961-13.188,41.961-31.171V51.341h16.785V98.1c0,25.177-23.978,41.962-58.746,41.962S805.554,123.275,805.554,98.1Zm-77.928,40.763V63.33H676.073V51.341h119.89V63.33H744.411v75.531Zm-567.079,0V51.341h98.31V63.33H177.331V96.9h81.525v11.989H177.331v29.973Zm-152.26,0V51.341H25.071v75.53H106.6v11.99Zm1070.617-1.2V51.341h98.31v10.79h-81.525V88.507h81.525V99.3h-81.525v27.574h81.525v10.79Zm-46.757,0L960.212,66.927h-1.2v70.735H942.229V51.341h22.779l71.934,70.735h1.2V51.341h16.784v86.32Zm-448.388,0L511.824,66.927h-1.2v70.735H493.841V51.341H516.62l71.933,70.735h1.2V51.341h16.785v86.32Zm-130.68,0V51.341h16.785v86.32Zm-177.437,0V51.341h98.31v10.79H292.425V88.507h81.526V99.3H292.425v27.574h81.526v10.79Zm-154.658,0V51.341h16.784v86.32Z" transform="translate(591 408)" fill="url(#linear-gradient)"/>
    <path id="Path_90" data-name="Path 90" d="M19.933,7.91a18.834,18.834,0,0,1,9.514,2.438,17.707,17.707,0,0,1,6.7,6.7,18.731,18.731,0,0,1,2.438,9.461A18.706,18.706,0,0,1,36.1,36.029a18.32,18.32,0,0,1-6.784,6.811,18.562,18.562,0,0,1-9.488,2.491A18.4,18.4,0,0,1,3.635,36.055,18.616,18.616,0,0,1,1.17,26.62a18.616,18.616,0,0,1,2.465-9.435A18.18,18.18,0,0,1,10.393,10.4,18.663,18.663,0,0,1,19.933,7.91Zm-.106,33.975a14.936,14.936,0,0,0,7.712-2.041A14.742,14.742,0,0,0,33,34.279a15.536,15.536,0,0,0,1.988-7.765,15.529,15.529,0,0,0-1.935-7.739,14.188,14.188,0,0,0-5.38-5.433,15.2,15.2,0,0,0-7.739-1.988,15.047,15.047,0,0,0-7.739,2.014,14.465,14.465,0,0,0-5.406,5.512A15.553,15.553,0,0,0,4.827,26.62a15.553,15.553,0,0,0,1.961,7.739,14.524,14.524,0,0,0,5.38,5.512A14.8,14.8,0,0,0,19.827,41.885Zm9.859-18.233a7.268,7.268,0,0,1-.981,3.843,6.529,6.529,0,0,1-2.889,2.518l4.505,6.89H24.81L20.94,30.967H17.283V36.9H11.771V16.338h8.958A9.963,9.963,0,0,1,27.3,18.325,6.579,6.579,0,0,1,29.686,23.652Zm-9.329,3.18a4.533,4.533,0,0,0,2.889-.822,2.836,2.836,0,0,0,1.034-2.359,2.912,2.912,0,0,0-1.034-2.385,4.433,4.433,0,0,0-2.889-.848H17.23v6.413Z" transform="translate(1777.88 451.431)" fill="#91742d"/>
  </g>
</svg>
