<svg xmlns="http://www.w3.org/2000/svg" xmlns:xlink="http://www.w3.org/1999/xlink" width="1048.536" height="123.024" viewBox="0 0 1048.536 123.024">
  <defs>
    <linearGradient id="linear-gradient" x1="0.033" y1="1" x2="0.935" y2="1" gradientUnits="objectBoundingBox">
      <stop offset="0" stop-color="#d6b65f"/>
      <stop offset="0.502" stop-color="#fffea6"/>
      <stop offset="1" stop-color="#91742d"/>
    </linearGradient>
  </defs>
  <g id="life-in-tune-logo-horizontal-w-ornament" transform="translate(-640.408 -275.189)">
    <path id="Intersection_2" data-name="Intersection 2" d="M97.772,142.213h-.587c0-10.277.293-17.617.293-22.9h.587c0,5.286,0,12.625.294,22.9Zm8.515-1.174-2.937-21.728a.287.287,0,0,1,.293-.293,13.286,13.286,0,0,0,4.7-.881.288.288,0,0,1,.293.294,1.516,1.516,0,0,1-.88,2.055c-2.937.588-2.937.588-3.523-.293.293.587.587,1.468,1.174,1.174a2.929,2.929,0,0,0,1.174-.293c.88-.293,1.468-.588,1.761,0,0,0,4.11,17.029,4.7,19.084-2.056.293-4.4.881-6.459,1.174C106.287,141.331,106.287,141.331,106.287,141.038Zm-17.911,0c3.523-21.14,2.937-19.379,3.523-19.966a9.817,9.817,0,0,0,.881-1.762c-.588,4.7-2.056,15.268-2.937,21.728a.287.287,0,0,1-.293.293C89.257,141.331,88.67,141.038,88.376,141.038Zm-6.753-1.468v-.294l5.872-21.14a1.028,1.028,0,0,1,.588-.293c1.468.293,3.23.588,4.7.881.293.293-.294,1.174-.588,1.468a2.226,2.226,0,0,1-1.175.588,2.2,2.2,0,0,1-1.468-.294c-1.468-.587-1.468-.293-1.761-1.468,0,.588,0,1.175.587,1.468a9.215,9.215,0,0,1,2.056.588c.293,0,.881,0,.881.587-.294,1.468-2.937,17.03-3.23,19.379A41.671,41.671,0,0,1,81.624,139.57ZM108.635,119.9a1.306,1.306,0,0,0,.212-.971c1.286,4.776,4,14.526,5.66,20.349v.294a1.766,1.766,0,0,0-1.174.293C108.049,119.017,108.342,120.779,108.635,119.9Zm12.332,17.323-8.221-20.26c0-.293,0-.293.293-.88,1.174-.588,2.642-1.174,4.11-2.056.588,0,.881,1.762,0,2.349-2.936,1.761-2.642,1.761-3.523.881,0,.293.588,1.174,1.174.88,1.469-.587.881-.587,2.349-1.174.293,0,.293,0,.588.294.587.587,8.221,15.268,9.4,17.323a36.559,36.559,0,0,1-5.872,2.936A.288.288,0,0,1,120.967,137.221ZM73.4,136.633c8.808-19.672,7.634-17.91,8.515-18.5.293-.293.587-.88,1.174-1.468-1.761,4.4-5.872,14.094-8.515,20.259a.288.288,0,0,1-.293.294C73.99,136.927,73.7,136.927,73.4,136.633ZM66.943,133.4v-.294L78.1,114.319a.287.287,0,0,1,.293-.293c1.174.588,2.642,1.468,4.11,2.056.294.587-.88,2.055-1.761,1.468a17.449,17.449,0,0,1-2.349-1.174.6.6,0,0,1-.365-.527.792.792,0,0,0,.365.82c.293.293.293.293,2.056,1.174.293,0,.881.293.587.588,0,0-7.34,15.854-8.221,17.91A36.531,36.531,0,0,1,66.943,133.4Zm51.382-17.03a4.174,4.174,0,0,0-.587-1.761c2.349,4.11,7.634,13.212,10.863,18.791v.293c-.293.293-.587.293-.88.587C117.444,115.787,118.031,117.256,118.325,116.375Zm15.855,13.506-12.919-17.617v-.294a43.955,43.955,0,0,0,3.817-3.229.725.725,0,0,1,.423.23c-.047-.076-.091-.153-.13-.23,3.229,3.229,10.864,11.157,14.974,15.561.293,0,.293,0,.293.294l-.881.88c-14.386-15.854-13.212-14.386-13.505-15.268a1.666,1.666,0,0,0-.374-.685,1.078,1.078,0,0,1,.079.391c.294,1.175-.293,1.175-2.349,2.936-.293.293-.88,0-1.174-.293.881,1.174,1.469.587,1.762.293,1.761-1.468,2.056-1.761,2.349-1.468.88,1.174,11.744,12.919,13.212,14.681a64.378,64.378,0,0,1-5.285,4.11Zm-75.164-1.468c6.459-8.221,11.157-13.8,14.681-17.618,0,.294.293.294.587.588-3.229,3.817-7.634,9.689-14.093,17.91A4.056,4.056,0,0,1,59.016,128.413Zm-6.166-6.46c15.854-14.387,14.387-13.212,15.268-13.505a1.6,1.6,0,0,0,.944-.416c-3.784,3.548-10.676,10.42-15.037,14.509,0,.293,0,.293-.294.293Zm-4.4-5.285a.287.287,0,0,1,.293-.293l17.618-12.919a.909.909,0,0,1,.587.293,31.118,31.118,0,0,0,2.936,3.523c0,.2-.264.394-.616.59-.067.059-.134.116-.2.168l.148-.138c-.158.086-.331.173-.5.259-1.174.294-1.174-.293-2.936-2.348-.293-.294,0-.881.293-1.174-1.174.88-.587,1.468-.293,1.761,1.468,1.761,1.761,2.056,1.468,2.349-1.468,1.174-12.625,11.451-14.681,13.212A64.378,64.378,0,0,1,48.445,116.668Zm79.863-11.744c.293,0,.293-.293.587-.588,4.11,3.23,9.689,7.634,17.617,13.8a4.043,4.043,0,0,1-.88,1.174C137.7,113.144,132.125,108.447,128.309,104.924Zm-19.673,13.212a2.231,2.231,0,0,1,.212.791Zm-10.57-4.11H96.6L89.844,72.039A46.064,46.064,0,0,1,83.092,69.4a46.545,46.545,0,0,1-7.927-5.285,38.752,38.752,0,0,0-4.111-3.524,5.186,5.186,0,0,1,1.174-1.468,16.158,16.158,0,0,0,4.111,2.642c1.174.588,2.642.881,3.817,1.468a54.29,54.29,0,0,0,13.8,2.349l3.817,4.991,3.817-4.991a48.209,48.209,0,0,0,6.753-.587,35.171,35.171,0,0,0,7.928-2.056,23.373,23.373,0,0,0,4.7-2.349,30.978,30.978,0,0,0,3.23-2.055l1.174.587c-1.174,1.174-2.642,2.349-4.4,4.11a.288.288,0,0,1-.293.294l-.293.293-.588.587c-.293,0-.293,0-.587.294a43.016,43.016,0,0,1-6.166,4.11,34.224,34.224,0,0,1-7.634,2.936l-.293.293-5.579,41.987Zm678.1-31.574V48.3h12.257V82.452c0,13.134,12.259,22.766,30.647,22.766s30.645-9.632,30.645-22.766V48.3h12.258V82.452c0,18.388-17.512,30.646-42.9,30.646S776.168,100.84,776.168,82.452Zm-56.914,29.77V57.06H681.6V48.3h87.559V57.06H731.512v55.162Zm-414.154,0V48.3h71.8V57.06H317.359V81.576H376.9v8.756H317.359v21.89Zm-111.2,0V48.3h12.258v55.162H265.7v8.756Zm-42.984-.545-18.791-11.157s-.293-.293,0-.293c.588-1.174,1.468-2.642,2.056-4.11.587-.294,2.056.88,1.468,1.761-.293.588-.293.881-.587,1.174-.381.953-.515,1.41-.883,1.535a.678.678,0,0,0,.589-.36,4.191,4.191,0,0,1,.588-1.174c.587-1.174.587-1.761,1.174-1.468.293.293,15.561,7.047,17.91,8.221-1.174,2.055-2.055,4.11-3.229,5.872Zm824.887-.33V48.3h71.8v7.88H988.061V75.447H1047.6v7.88H988.061v20.138H1047.6v7.88Zm-34.149,0-52.536-51.66h-.875v51.66H875.985V48.3H892.62l52.536,51.66h.876V48.3H958.29v63.042Zm-327.471,0-52.535-51.66h-.876v51.66H548.513V48.3H565.15l52.536,51.66h.877V48.3h12.257v63.042Zm-95.439,0V48.3H531v63.042Zm-129.587,0V48.3h71.8v7.88h-59.54V75.447h59.54v7.88h-59.54v20.138h59.54v7.88Zm-112.952,0V48.3h12.259v63.042ZM44.628,110.8c-.293-.294-.293-.588-.587-.881,2.642-1.468,15.561-8.515,17.323-9.4a1.078,1.078,0,0,1,.88-.293,3.729,3.729,0,0,0,1.762-.293C59.9,102.281,50.5,107.566,44.922,110.8Zm-3.523-7.34a.288.288,0,0,1,.294-.294l20.259-8.221a.909.909,0,0,1,.587.293c.588,1.174,1.175,2.642,2.056,4.11,0,.588-1.762.881-2.349,0-1.761-2.936-1.761-2.642-.881-3.523-.293,0-1.174.588-.88,1.174l.587,1.174c.588,1.174,1.174,1.469.588,1.762-.588.587-15.268,8.221-17.323,9.4A36.561,36.561,0,0,1,41.1,103.456Zm27.957,4.576ZM135.941,96.7a6.389,6.389,0,0,0-1.468-1.174c4.4,1.762,14.093,5.872,20.259,8.515a1.766,1.766,0,0,1-.293,1.174C134.767,96.409,136.529,97.583,135.941,96.7Zm21.14.293-21.14-6.166a.287.287,0,0,1-.293-.293c.293-1.468.588-3.229.881-4.7.109-.108.416-.1.747.02,4.774.6,15.18,2.049,21.568,3.21h.293c0,.293-.293.588-.293,1.174-20.847-3.23-19.379-2.936-19.966-3.523a3.934,3.934,0,0,0-1.042-.558,1.079,1.079,0,0,1,.454,1.146c-.587,3.229-.293,2.936-1.468,3.229.588,0,1.174,0,1.468-.587a9.151,9.151,0,0,1,.588-2.056.631.631,0,0,1,.587-.587c2.056.293,16.149,2.642,19.379,3.229A41.67,41.67,0,0,1,157.375,97ZM38.756,96.7a1.766,1.766,0,0,0-.293-1.174c20.847-5.285,19.084-4.991,19.966-4.7a1.509,1.509,0,0,0,1.214.179c-4.683,1.5-14.669,4-20.592,5.693Zm-1.761-7.927c0-.293,0-.293.293-.293l21.728-2.937a1.078,1.078,0,0,1,.88.293,23.486,23.486,0,0,0,.881,4.4,1.453,1.453,0,0,1-2.349-.587c-.881-2.937-.881-2.937,0-3.523-.587.293-1.468.587-1.174,1.174v1.468c.293.881.588,1.468,0,1.761,0,0-16.736,4.111-19.084,4.7C37.876,93.179,37.288,90.83,36.994,88.775Zm23.2,2.055a2.106,2.106,0,0,1-.548.179C59.834,90.948,60.017,90.887,60.19,90.83ZM36.408,80.847v-.88c10.276,0,17.323.293,22.608.293v.881c-4.991,0-12.332,0-22.608.293Zm101,0V80.26c4.7,0,9.689,0,22.021-.293v1.174C147.1,81.141,142.108,80.847,137.41,80.847Zm-.3-5.563a13.315,13.315,0,0,0-.878-4.42c.293-.587,2.055-.293,2.348.588.588,2.936.588,2.936-.293,3.523.588-.293,1.468-.588,1.174-1.174-.293-1.762-.293-1.174-.587-2.642,0-.294,0-.588.293-.588.293-.293,16.442-4.11,19.084-4.7.293,2.056.881,4.4,1.175,6.46h-.293l-21.728,2.936a1.731,1.731,0,0,0-.3.015q0,.14,0,.278C136.932,75.378,136.979,75.309,137.113,75.284ZM37.581,72.039l-.293-.293c0-.293.293-.881.293-1.174,20.847,3.23,19.379,2.937,19.966,3.523a9.788,9.788,0,0,0,1.762.881C54.611,74.094,44.042,72.92,37.581,72.039Zm19.966.881c.588-2.936.294-2.936,1.469-3.229-.588,0-1.174,0-1.469.587-.587,2.642-.293,2.936-.88,2.936C55.2,72.92,39.93,70.571,37.288,69.984a41.671,41.671,0,0,1,1.468-6.459h.294L60.19,69.4c.293.294.293.294,0,.588-.294,1.174-.588,2.936-.881,4.4a.376.376,0,0,1-.263.075C58.471,74.462,57.3,73.893,57.547,72.92ZM138,69.691h-2.056c4.4-1.469,14.974-4.111,21.14-5.873h.293a2.217,2.217,0,0,0,.294,1.174c-15.84,4.073-18.426,4.833-19.182,4.833A1.227,1.227,0,0,1,138,69.691Zm-3.817-3.818a29.65,29.65,0,0,0-2.056-4.4.287.287,0,0,1,.293-.293,1.241,1.241,0,0,1,2.056.293c.293.587.293.881.588,1.174.88,1.468,1.174,1.468.293,2.349.293,0,1.174-.588.881-1.174-.881-2.056-.294-1.174-.881-2.056-.588-.293-.588-.587-.293-.881.587-.587,14.68-8.221,17.323-9.4a58.9,58.9,0,0,1,2.936,6.166h-.293l-20.26,8.221Zm-92.488-9.1h0a3.042,3.042,0,0,1,.293-1.175c19.672,8.808,17.91,7.634,18.5,8.515a6.408,6.408,0,0,0,1.468,1.174C57.547,63.525,47.858,59.414,41.693,56.771ZM61.951,64.4c-.881-.293-1.468-.88-1.174-1.761.293-.588.293-.881.588-1.174.382-.953.515-1.41.883-1.535a.681.681,0,0,0-.59.36c-.293.293-.881,1.761-1.174,2.056,0,.293-.293.88-.588.587-.293,0-15.561-7.047-17.91-7.927,1.174-2.056,2.056-4.111,3.23-5.872h.293L64.3,60.295a.333.333,0,0,1,.231.085A18.471,18.471,0,0,0,62.538,64.4Zm31.71-4.11a3.7,3.7,0,0,1,3.817-3.817,3.817,3.817,0,1,1-3.817,3.817Zm57.549-10.57h.293a2.224,2.224,0,0,0,.587,1.174c-18.5,10.277-17.029,9.689-17.91,9.4a16.559,16.559,0,0,1-2.056.293C136.236,58.239,145.631,52.954,151.21,49.725ZM64.532,60.379l.062-.085c0,.1,0,.131-.011.131S64.56,60.4,64.532,60.379Zm-15.205-17.7.881-.881C60.484,50.018,66.649,55.01,70.466,58.239c0,.294-.588.881-.881,1.174Zm77.22,10.864c0-.588,1.761-1.469,2.349-.588,2.055,2.349,2.055,2.349,1.468,3.23,1.174-.881.587-1.468.293-1.762-.587-.88,0,0-1.468-1.761-.293-.293-.293-.293,0-.588,1.468-1.468,12.038-11.157,14.387-13.212a64.351,64.351,0,0,1,4.111,5.285L130.07,57.065a.288.288,0,0,1-.294.294A43.82,43.82,0,0,0,126.546,53.542Zm.291-.562c-.1.092-.2.182-.291.267Q126.692,53.1,126.837,52.98Zm15.564-15,.881.881c-2.349,2.055-13.212,12.332-14.386,13.212-.294,0-.588.294-.881.294a2.261,2.261,0,0,0-1.177.613C130.475,49.614,137.829,42.268,142.4,37.98ZM55.492,36.512v-.293l.881-.881C70.76,51.193,69.585,49.725,69.879,50.605c0,.293.588.881.881,1.468C67.824,48.551,60.19,40.916,55.492,36.512ZM70.76,49.431c2.349-2.055,2.349-2.055,3.23-1.468-.881-1.175-1.469-.587-1.762-.293-.88.587,0,0-1.761,1.468-.293.293-.293.293-.588,0C69,47.963,58.428,36.512,56.667,34.457a64.531,64.531,0,0,1,5.285-4.11l.293.293L75.164,48.256c0,.294,0,.588-.294.588a31.033,31.033,0,0,0-3.523,2.936.257.257,0,0,1-.119.029C70.652,51.809,69.937,49.98,70.76,49.431Zm51.676,0c3.23-4.11,7.634-9.689,13.506-17.323l.88.881c-6.459,7.634-10.863,13.213-13.505,17.03C123.023,50.018,122.729,49.724,122.436,49.431Zm-8.515-4.7v-.293c.293-.88.88-1.468,1.761-1.174a17.5,17.5,0,0,1,2.349,1.174c.587.293.293.881.293,1.174.293-1.174,0-1.468-.587-1.761-2.056-1.174-2.642-.881-2.349-1.468,0-.294,7.046-15.269,8.221-17.911,2.056,1.174,4.111,2.056,5.872,3.23L118.325,46.495a.287.287,0,0,0-.293.293C116.857,46.2,115.389,45.32,113.921,44.733Zm-34.94,1.174a1.24,1.24,0,0,1,.293-2.055c.587-.293.881-.293,1.174-.588,1.468-.88,1.468-1.174,2.349-.293,0-.293-.588-1.174-1.174-.881-2.056.881-1.174.294-2.056.881-.293.588-.587.588-.881.293-.587-.587-8.221-14.974-9.4-17.323a58.723,58.723,0,0,1,6.166-2.936V23.3l8.221,20.26c0,.293,0,.587-.293.587-1.174.587-2.642,1.174-4.11,2.056ZM67.53,27.41v-.294c.588-.293.881-.293,1.174-.587,10.277,18.5,9.689,17.03,9.4,17.91a4.177,4.177,0,0,0,.587,1.762C76.339,42.09,71.053,32.7,67.53,27.41Zm54.319-3.524c.293.293.881.293,1.174.587-8.808,19.379-7.927,17.617-8.515,18.2a6.408,6.408,0,0,0-1.174,1.468C115.1,39.741,119.206,30.053,121.848,23.887ZM103.938,41.8a.68.68,0,0,1-.186-.52q-.054.119-.108.227c.588-4.7,2.056-15.268,2.937-21.728v-.293c.293,0,.587.293,1.174.293-3.23,20.847-2.937,19.379-3.23,19.966a2.723,2.723,0,0,0-.421.73,1.3,1.3,0,0,1,1.3-.436c3.229.587,2.936.293,3.229,1.468,0-.588,0-1.174-.587-1.468a9.215,9.215,0,0,1-2.056-.588c-.293,0-.88,0-.88-.587.293-2.056,2.642-16.149,3.229-19.379A41.67,41.67,0,0,1,114.8,20.95v.294l-5.872,21.14a.288.288,0,0,1-.294.293C107.168,42.385,105.406,42.09,103.938,41.8ZM88.964,40.329c2.936-.588,2.936-.588,3.523.293,0-.587-.587-1.468-1.174-1.174-1.762.293-1.174,0-2.349.293-.294,0-.588,0-.588-.293-.293-.293-4.11-16.149-4.7-19.085a49.684,49.684,0,0,1,6.46-1.175v.293L93.074,41.21V41.8a12.165,12.165,0,0,0-4.7.881C87.79,42.678,87.79,40.622,88.964,40.329Zm-1.353,1.509q.092.286.178.546A2.1,2.1,0,0,1,87.611,41.838Zm-5.694-20.3v-.293a2.217,2.217,0,0,0,1.174-.294c5.285,20.553,4.991,18.791,4.7,19.672a1.513,1.513,0,0,0-.178,1.216C86.116,37.177,83.609,27.461,81.917,21.538ZM97.772,41.21c0-4.991,0-12.038-.293-22.021h1.174c-.293,9.983-.293,17.03-.293,22.021Z" transform="translate(604 256)" fill="url(#linear-gradient)"/>
    <path id="Path_189" data-name="Path 189" d="M15.272,7.91a14.155,14.155,0,0,1,7.151,1.832,13.308,13.308,0,0,1,5.039,5.039,14.077,14.077,0,0,1,1.832,7.111,14.059,14.059,0,0,1-1.872,7.151,13.769,13.769,0,0,1-5.1,5.119,13.951,13.951,0,0,1-7.131,1.872,13.828,13.828,0,0,1-12.17-6.971A13.991,13.991,0,0,1,1.17,21.972a13.991,13.991,0,0,1,1.852-7.091A13.663,13.663,0,0,1,8.1,9.782,14.027,14.027,0,0,1,15.272,7.91Zm-.08,25.535a11.226,11.226,0,0,0,5.8-1.534,11.08,11.08,0,0,0,4.1-4.183,11.676,11.676,0,0,0,1.494-5.836,11.671,11.671,0,0,0-1.454-5.816,10.663,10.663,0,0,0-4.043-4.083A11.426,11.426,0,0,0,15.272,10.5a11.309,11.309,0,0,0-5.816,1.514,10.871,10.871,0,0,0-4.063,4.143,11.689,11.689,0,0,0-1.474,5.816,11.689,11.689,0,0,0,1.474,5.816,10.916,10.916,0,0,0,4.043,4.143A11.126,11.126,0,0,0,15.192,33.445Zm7.41-13.7a5.463,5.463,0,0,1-.737,2.888,4.907,4.907,0,0,1-2.171,1.892L23.08,29.7H18.937l-2.908-4.462H13.28V29.7H9.137V14.244H15.87a7.488,7.488,0,0,1,4.94,1.494A4.945,4.945,0,0,1,22.6,19.741Zm-7.011,2.39a3.407,3.407,0,0,0,2.171-.617,2.132,2.132,0,0,0,.777-1.773,2.189,2.189,0,0,0-.777-1.793,3.332,3.332,0,0,0-2.171-.637H13.24v4.82Z" transform="translate(1659.649 291.08)" fill="#91742d"/>
  </g>
</svg>
